<svg width="95" height="19" viewBox="0 0 95 19" fill="none" xmlns="http://www.w3.org/2000/svg">
<path d="M13.5276 0.46H15.1076V18.56H13.5276V0.46ZM10.4676 7.72H13.9476V9.08H10.4676V7.72ZM9.42758 0.859999H10.9676V17.62H9.42758V0.859999ZM0.407578 12.7H1.58758C2.48091 12.7 3.28758 12.6933 4.00758 12.68C4.74091 12.6533 5.43424 12.6 6.08758 12.52C6.75425 12.44 7.43425 12.3267 8.12758 12.18L8.28758 13.56C7.56758 13.7067 6.86758 13.82 6.18758 13.9C5.52091 13.98 4.81425 14.0333 4.06758 14.06C3.33425 14.0867 2.50758 14.1 1.58758 14.1H0.407578V12.7ZM0.407578 2.66H7.12758V4.02H2.06758V13.34H0.407578V2.66ZM22.706 10.26H24.366V15.42H22.706V10.26ZM28.266 10.28H29.926V15.44H28.266V10.28ZM18.166 14.98H34.566V16.36H18.166V14.98ZM19.606 2.14H33.026V3.5H19.606V2.14ZM19.646 9.36H32.986V10.72H19.646V9.36ZM22.406 3.24H24.066V9.64H22.406V3.24ZM28.566 3.24H30.206V9.64H28.566V3.24ZM54.1771 0.46H55.8371V18.58H54.1771V0.46ZM46.2971 1.86C47.1904 1.86 47.9771 2.12 48.6571 2.64C49.3504 3.14667 49.8904 3.87333 50.2771 4.82C50.6771 5.76667 50.8771 6.88 50.8771 8.16C50.8771 9.44 50.6771 10.5533 50.2771 11.5C49.8904 12.4467 49.3504 13.18 48.6571 13.7C47.9771 14.22 47.1904 14.48 46.2971 14.48C45.4038 14.48 44.6104 14.22 43.9171 13.7C43.2238 13.18 42.6771 12.4467 42.2771 11.5C41.8904 10.5533 41.6971 9.44 41.6971 8.16C41.6971 6.88 41.8904 5.76667 42.2771 4.82C42.6771 3.87333 43.2238 3.14667 43.9171 2.64C44.6104 2.12 45.4038 1.86 46.2971 1.86ZM46.2971 3.34C45.6971 3.34 45.1704 3.54 44.7171 3.94C44.2771 4.32667 43.9304 4.88667 43.6771 5.62C43.4238 6.34 43.2971 7.18667 43.2971 8.16C43.2971 9.13333 43.4238 9.98667 43.6771 10.72C43.9304 11.44 44.2771 12 44.7171 12.4C45.1704 12.8 45.6971 13 46.2971 13C46.8838 13 47.3971 12.8 47.8371 12.4C48.2904 12 48.6438 11.44 48.8971 10.72C49.1504 9.98667 49.2771 9.13333 49.2771 8.16C49.2771 7.18667 49.1504 6.34 48.8971 5.62C48.6438 4.88667 48.2904 4.32667 47.8371 3.94C47.3971 3.54 46.8838 3.34 46.2971 3.34ZM66.5355 2.18H67.9955V2.72C67.9955 3.48 67.8089 4.18 67.4355 4.82C67.0622 5.46 66.5489 6.03333 65.8955 6.54C65.2555 7.03333 64.5155 7.44667 63.6755 7.78C62.8489 8.1 61.9689 8.32667 61.0355 8.46L60.4155 7.14C61.0555 7.04667 61.6755 6.90667 62.2755 6.72C62.8889 6.53333 63.4489 6.30667 63.9555 6.04C64.4622 5.76 64.9089 5.44667 65.2955 5.1C65.6822 4.75333 65.9822 4.38 66.1955 3.98C66.4222 3.58 66.5355 3.16 66.5355 2.72V2.18ZM67.2155 2.18H68.6755V2.72C68.6755 3.14667 68.7822 3.56 68.9955 3.96C69.2222 4.36 69.5289 4.74 69.9155 5.1C70.3022 5.44667 70.7489 5.76 71.2555 6.04C71.7755 6.30667 72.3355 6.53333 72.9355 6.72C73.5355 6.90667 74.1555 7.04667 74.7955 7.14L74.1755 8.46C73.2555 8.32667 72.3755 8.1 71.5355 7.78C70.6955 7.44667 69.9555 7.03333 69.3155 6.54C68.6755 6.03333 68.1622 5.46 67.7755 4.82C67.4022 4.18 67.2155 3.48 67.2155 2.72V2.18ZM60.9355 1.36H74.2955V2.7H60.9355V1.36ZM59.4155 9.76H75.8155V11.12H59.4155V9.76ZM66.8955 10.62H68.5555V14.78H66.8955V10.62ZM61.4955 16.8H73.9955V18.16H61.4955V16.8ZM61.4955 13.02H63.1555V17.3H61.4955V13.02ZM85.174 6.8H86.814V10.16H85.174V6.8ZM85.154 0.74H86.574V1.56C86.574 2.2 86.4473 2.80667 86.194 3.38C85.9407 3.95333 85.5807 4.48 85.114 4.96C84.6607 5.44 84.134 5.86667 83.534 6.24C82.934 6.6 82.2873 6.91333 81.594 7.18C80.9007 7.43333 80.1807 7.62 79.434 7.74L78.814 6.42C79.454 6.32667 80.0807 6.18 80.694 5.98C81.3207 5.76667 81.9007 5.51333 82.434 5.22C82.9673 4.91333 83.434 4.56667 83.834 4.18C84.2473 3.79333 84.5673 3.38 84.794 2.94C85.034 2.5 85.154 2.04 85.154 1.56V0.74ZM85.414 0.74H86.834V1.56C86.834 2.04 86.9473 2.5 87.174 2.94C87.4007 3.38 87.7207 3.79333 88.134 4.18C88.5473 4.55333 89.0207 4.89333 89.554 5.2C90.0873 5.50667 90.6607 5.76667 91.274 5.98C91.9007 6.18 92.534 6.32667 93.174 6.42L92.534 7.74C91.8007 7.62 91.0873 7.43333 90.394 7.18C89.714 6.91333 89.0673 6.59333 88.454 6.22C87.854 5.84667 87.3207 5.42667 86.854 4.96C86.4007 4.48 86.0473 3.96 85.794 3.4C85.5407 2.82667 85.414 2.21333 85.414 1.56V0.74ZM77.834 9.44H94.174V10.78H77.834V9.44ZM85.994 12.26C87.9273 12.26 89.4407 12.5333 90.534 13.08C91.6273 13.6267 92.174 14.4 92.174 15.4C92.174 16.4 91.6273 17.1667 90.534 17.7C89.4407 18.2467 87.9273 18.52 85.994 18.52C84.0473 18.52 82.5273 18.2467 81.434 17.7C80.3407 17.1667 79.794 16.4 79.794 15.4C79.794 14.4 80.3407 13.6267 81.434 13.08C82.5273 12.5333 84.0473 12.26 85.994 12.26ZM85.994 13.56C84.5673 13.56 83.454 13.72 82.654 14.04C81.8673 14.3467 81.474 14.8 81.474 15.4C81.474 15.9867 81.8673 16.44 82.654 16.76C83.454 17.08 84.5673 17.24 85.994 17.24C87.4073 17.24 88.514 17.08 89.314 16.76C90.114 16.44 90.514 15.9867 90.514 15.4C90.514 14.8 90.114 14.3467 89.314 14.04C88.514 13.72 87.4073 13.56 85.994 13.56Z" fill="black"/>
</svg>
